<svg width="19" height="19" viewBox="0 0 19 19" fill="none" xmlns="http://www.w3.org/2000/svg">
<path d="M17.4999 9.16668H15.4333C15.0691 9.1659 14.7146 9.28443 14.4242 9.50415C14.1337 9.72387 13.9232 10.0327 13.8249 10.3833L11.8666 17.35C11.854 17.3933 11.8276 17.4313 11.7916 17.4583C11.7555 17.4854 11.7117 17.5 11.6666 17.5C11.6215 17.5 11.5776 17.4854 11.5416 17.4583C11.5055 17.4313 11.4792 17.3933 11.4666 17.35L6.86658 0.983344C6.85396 0.94007 6.82765 0.902056 6.79158 0.87501C6.75552 0.847964 6.71166 0.833344 6.66659 0.833344C6.62151 0.833344 6.57765 0.847964 6.54159 0.87501C6.50552 0.902056 6.47921 0.94007 6.46659 0.983344L4.50825 7.95001C4.41031 8.29931 4.20107 8.60711 3.91231 8.82669C3.62354 9.04627 3.27102 9.16564 2.90825 9.16668H0.833252" stroke="#1E293B" stroke-width="1.66667" stroke-linecap="round" stroke-linejoin="round"/>
</svg>
