<svg width="20" height="20" viewBox="0 0 20 20" fill="none" xmlns="http://www.w3.org/2000/svg">
<g clip-path="url(#clip0_90_1803)">
<path d="M9.99984 17.45C11.2498 17.45 12.2915 18.3333 13.3332 18.3333C15.8332 18.3333 18.3332 11.6666 18.3332 8.14998C18.3048 7.07058 17.8509 6.04617 17.0704 5.30002C16.2899 4.55387 15.2461 4.14648 14.1665 4.16665C12.3165 4.16665 10.8332 5.36665 9.99984 5.83331C9.1665 5.36665 7.68317 4.16665 5.83317 4.16665C4.75296 4.14428 3.70792 4.55094 2.92695 5.29755C2.14597 6.04416 1.69273 7.06986 1.6665 8.14998C1.6665 11.6666 4.1665 18.3333 6.6665 18.3333C7.70817 18.3333 8.74984 17.45 9.99984 17.45Z" stroke="#1E293B" stroke-width="1.66667" stroke-linecap="round" stroke-linejoin="round"/>
<path d="M8.3335 1.66669C9.16683 2.08335 10.0002 3.33335 10.0002 5.83335" stroke="#1E293B" stroke-width="1.66667" stroke-linecap="round" stroke-linejoin="round"/>
</g>
<defs>
<clipPath id="clip0_90_1803">
<rect width="20" height="20" fill="white"/>
</clipPath>
</defs>
</svg>
