<svg width="9" height="13" viewBox="0 0 9 13" fill="none" xmlns="http://www.w3.org/2000/svg">
<path d="M4.08301 0C6.33817 0 8.16602 1.82784 8.16602 4.08301C8.16593 5.31996 7.61488 6.42711 6.74609 7.17578L7.56934 11.8066L7.57031 11.8115C7.59988 11.987 7.57553 12.168 7.5 12.3291C7.42433 12.4903 7.30047 12.6254 7.14648 12.7148C6.9927 12.8039 6.81485 12.8442 6.6377 12.8301C6.46838 12.8164 6.30695 12.7521 6.17285 12.6484V12.6494L4.08496 11.083L1.99414 12.6494L1.99316 12.6475C1.85932 12.7509 1.69921 12.8153 1.53027 12.8291C1.35311 12.8434 1.17536 12.8028 1.02148 12.7139C0.867627 12.6248 0.743865 12.4909 0.667969 12.3301C0.592178 12.1693 0.567574 11.9889 0.59668 11.8135L0.597656 11.8066L1.41895 7.17578C0.550485 6.42712 9.04288e-05 5.31969 0 4.08301C0 1.82784 1.82784 0 4.08301 0ZM5.67969 7.84082C5.18915 8.04947 4.64975 8.16602 4.08301 8.16602C3.51641 8.16602 2.97677 8.05035 2.48633 7.8418L1.875 11.2803L3.38672 10.1484C3.58821 9.99796 3.83349 9.91611 4.08496 9.91602C4.33635 9.91612 4.58176 9.99805 4.7832 10.1484L4.78516 10.1494L6.29004 11.2793L5.67969 7.84082ZM4.08301 1.16602C2.47218 1.16602 1.16602 2.47218 1.16602 4.08301C1.16618 5.6937 2.47228 7 4.08301 7C5.69374 7 6.99984 5.6937 7 4.08301C7 2.47218 5.69384 1.16602 4.08301 1.16602Z" fill="#1E293B"/>
</svg>
