<svg width="17" height="19" viewBox="0 0 17 19" fill="none" xmlns="http://www.w3.org/2000/svg">
<path d="M9.05396 16.249C9.28412 15.8507 9.79417 15.7144 10.1926 15.9443C10.591 16.1745 10.7274 16.6845 10.4973 17.083C10.2779 17.4629 9.96221 17.7787 9.58228 17.998C9.20232 18.2173 8.77097 18.333 8.33228 18.333C7.8936 18.333 7.4622 18.2174 7.08228 17.998C6.70241 17.7787 6.38662 17.4629 6.16724 17.083C5.93728 16.6846 6.07373 16.1746 6.47192 15.9443C6.87038 15.7143 7.38037 15.8507 7.6106 16.249C7.68368 16.3756 7.78873 16.4816 7.91528 16.5547C8.04188 16.6278 8.1861 16.666 8.33228 16.666C8.47846 16.666 8.62265 16.6277 8.74927 16.5547C8.87585 16.4816 8.98084 16.3756 9.05396 16.249ZM8.33228 0C9.87921 5.42048e-05 11.3634 0.614209 12.4573 1.70801C13.5511 2.80194 14.1663 4.28605 14.1663 5.83301C14.1663 7.62018 14.4455 8.73261 14.8118 9.50781C15.0871 10.0904 15.4266 10.5187 15.8127 10.9375L16.2141 11.3584L16.2327 11.3779C16.4498 11.6167 16.593 11.9139 16.6448 12.2324C16.6964 12.5511 16.6543 12.8786 16.5237 13.1738C16.393 13.4691 16.1791 13.7203 15.9084 13.8965C15.6716 14.0506 15.3999 14.1419 15.1194 14.1621L14.9993 14.166H1.66528C1.34249 14.1658 1.02649 14.0718 0.756104 13.8955C0.485688 13.7191 0.272174 13.4673 0.141846 13.1719C0.011578 12.8764 -0.0303542 12.5492 0.0217285 12.2305C0.0738935 11.9117 0.218128 11.6146 0.435791 11.376C0.441201 11.3701 0.446814 11.3642 0.452393 11.3584C1.00601 10.7868 1.48569 10.2846 1.85278 9.50781C2.21897 8.73263 2.49923 7.62008 2.49927 5.83301C2.49927 4.28595 3.11434 2.80196 4.20825 1.70801C5.3021 0.614323 6.78546 9.73515e-05 8.33228 0ZM8.33228 1.66602C7.22734 1.66611 6.1673 2.1054 5.38599 2.88672C4.60475 3.6681 4.16626 4.72806 4.16626 5.83301C4.16622 7.79469 3.85775 9.16523 3.35962 10.2197C2.98667 11.009 2.52145 11.5866 2.07935 12.0664L1.66626 12.5H14.9993C14.4496 11.9335 13.7968 11.2606 13.3049 10.2197C12.8066 9.16504 12.4993 7.7946 12.4993 5.83301C12.4993 4.72807 12.0598 3.66809 11.2786 2.88672C10.4972 2.10548 9.43718 1.66607 8.33228 1.66602Z" fill="#1E293B"/>
</svg>
