<svg width="17" height="17" viewBox="0 0 17 17" fill="none" xmlns="http://www.w3.org/2000/svg">
<path d="M5.83301 10.833C6.75327 10.833 7.49966 11.5788 7.5 12.499V14.999C7.5 15.9195 6.75348 16.666 5.83301 16.666H1.66602C0.745691 16.6658 0 15.9194 0 14.999V12.499C0.000340672 11.5789 0.745901 10.8332 1.66602 10.833H5.83301ZM15 7.5C15.9203 7.50013 16.6668 8.24577 16.667 9.16602V15C16.6668 15.9202 15.9203 16.6659 15 16.666H10.833C9.91279 16.6658 9.16717 15.9202 9.16699 15V9.16602C9.16717 8.2458 9.91279 7.50018 10.833 7.5H15ZM10.833 15H15V9.16602H10.833V15ZM1.66602 14.999H5.83301V12.499H1.66602V14.999ZM5.83301 0C6.75337 0 7.49982 0.745691 7.5 1.66602V7.5C7.49982 8.42032 6.75337 9.16602 5.83301 9.16602H1.66602C0.745799 9.16584 0.000175999 8.42022 0 7.5V1.66602C0.000175902 0.745799 0.745799 0.000175902 1.66602 0H5.83301ZM1.66602 7.5H5.83301V1.66602H1.66602V7.5ZM15 0C15.9203 0.000131856 16.6668 0.745772 16.667 1.66602V4.16602C16.667 5.08641 15.9204 5.83288 15 5.83301H10.833C9.91268 5.83283 9.16699 5.08638 9.16699 4.16602V1.66602C9.16717 0.745799 9.91279 0.000175902 10.833 0H15ZM10.833 4.16602H15V1.66602H10.833V4.16602Z" fill="#1E293B"/>
</svg>
