<svg width="36" height="36" viewBox="0 0 36 36" fill="none" xmlns="http://www.w3.org/2000/svg">
<path d="M21.5999 21.5999L14.3999 14.3999" stroke="white" stroke-width="3" stroke-linecap="round" stroke-linejoin="round"/>
<path d="M27.9856 32.2276C27.4231 32.7903 26.66 33.1065 25.8644 33.1067C25.0687 33.1068 24.3056 32.7909 23.7428 32.2283C23.1801 31.6658 22.8639 30.9028 22.8638 30.1071C22.8636 29.3115 23.1796 28.5483 23.7421 27.9856L21.0916 30.6376C20.5289 31.2003 19.7657 31.5165 18.9698 31.5165C18.174 31.5165 17.4108 31.2003 16.8481 30.6376C16.2854 30.0749 15.9692 29.3117 15.9692 28.5158C15.9692 27.72 16.2854 26.9568 16.8481 26.3941L26.3941 16.8481C26.9568 16.2854 27.72 15.9692 28.5158 15.9692C29.3117 15.9692 30.0749 16.2854 30.6376 16.8481C31.2003 17.4108 31.5165 18.174 31.5165 18.9698C31.5165 19.7657 31.2003 20.5289 30.6376 21.0916L27.9856 23.7421C28.5483 23.1796 29.3115 22.8636 30.1071 22.8638C30.9028 22.8639 31.6658 23.1801 32.2283 23.7428C32.7909 24.3056 33.1068 25.0687 33.1067 25.8644C33.1065 26.66 32.7903 27.4231 32.2276 27.9856L27.9856 32.2276Z" stroke="white" stroke-width="3" stroke-linecap="round" stroke-linejoin="round"/>
<path d="M32.2499 32.2499L30.1499 30.1499" stroke="white" stroke-width="3" stroke-linecap="round" stroke-linejoin="round"/>
<path d="M5.85 5.85L3.75 3.75" stroke="white" stroke-width="3" stroke-linecap="round" stroke-linejoin="round"/>
<path d="M9.60589 19.1519C9.04316 19.7146 8.27995 20.0307 7.48414 20.0307C6.68833 20.0307 5.92511 19.7146 5.36239 19.1519C4.79966 18.5892 4.48353 17.8259 4.48353 17.0301C4.48353 16.2343 4.79966 15.4711 5.36239 14.9084L8.01439 12.2579C7.73576 12.5364 7.40499 12.7573 7.04098 12.9081C6.67696 13.0588 6.28683 13.1363 5.89286 13.1362C5.09719 13.1361 4.33416 12.8199 3.77164 12.2571C3.4931 11.9785 3.27218 11.6477 3.12147 11.2837C2.97077 10.9197 2.89324 10.5296 2.89331 10.1356C2.89345 9.33994 3.20966 8.57691 3.77239 8.01439L8.01439 3.77239C8.57691 3.20966 9.33994 2.89345 10.1356 2.89331C10.5296 2.89324 10.9197 2.97077 11.2837 3.12147C11.6477 3.27218 11.9785 3.4931 12.2571 3.77164C12.5358 4.05017 12.7568 4.38086 12.9076 4.74482C13.0585 5.10878 13.1361 5.49888 13.1362 5.89286C13.1363 6.28683 13.0588 6.67696 12.9081 7.04098C12.7573 7.40499 12.5364 7.73576 12.2579 8.01439L14.9084 5.36239C15.4711 4.79966 16.2343 4.48353 17.0301 4.48353C17.8259 4.48353 18.5892 4.79966 19.1519 5.36239C19.7146 5.92511 20.0307 6.68833 20.0307 7.48414C20.0307 8.27995 19.7146 9.04316 19.1519 9.60589L9.60589 19.1519Z" stroke="white" stroke-width="3" stroke-linecap="round" stroke-linejoin="round"/>
</svg>
