<svg width="17" height="14" viewBox="0 0 17 14" fill="none" xmlns="http://www.w3.org/2000/svg">
<path d="M14.25 0C15.4926 0 16.5 1.00736 16.5 2.25V11.25C16.5 12.4926 15.4926 13.5 14.25 13.5H2.25C1.00736 13.5 0 12.4926 0 11.25V2.25C0 1.00736 1.00736 0 2.25 0H14.25ZM9.4248 7.9082L9.4209 7.91016C9.07 8.13 8.66408 8.24707 8.25 8.24707C7.83592 8.24707 7.43 8.13 7.0791 7.91016L7.0752 7.9082L1.5 4.36426V11.25C1.5 11.6642 1.83579 12 2.25 12H14.25C14.6642 12 15 11.6642 15 11.25V4.36426L9.4248 7.9082ZM2.25 1.5C1.83579 1.5 1.5 1.83579 1.5 2.25V2.58789L7.88086 6.6416C7.99197 6.71001 8.11945 6.74707 8.25 6.74707C8.38027 6.74707 8.50722 6.70972 8.61816 6.6416L15 2.58789V2.25C15 1.83579 14.6642 1.5 14.25 1.5H2.25Z" fill="#64748B"/>
</svg>
