<svg width="14" height="18" viewBox="0 0 14 18" fill="none" xmlns="http://www.w3.org/2000/svg">
<path d="M3.75004 10.4167C4.30257 10.4167 4.83248 10.1972 5.22318 9.80648C5.61388 9.41578 5.83337 8.88588 5.83337 8.33334C5.83337 7.18334 5.41671 6.66668 5.00004 5.83334C4.10671 4.04751 4.81337 2.45501 6.66671 0.833344C7.08337 2.91668 8.33337 4.91668 10 6.25001C11.6667 7.58334 12.5 9.16668 12.5 10.8333C12.5 11.5994 12.3492 12.3579 12.056 13.0657C11.7629 13.7734 11.3332 14.4165 10.7915 14.9581C10.2498 15.4998 9.60676 15.9295 8.89903 16.2226C8.19129 16.5158 7.43275 16.6667 6.66671 16.6667C5.90066 16.6667 5.14212 16.5158 4.43439 16.2226C3.72665 15.9295 3.08359 15.4998 2.54192 14.9581C2.00024 14.4165 1.57056 13.7734 1.27741 13.0657C0.984258 12.3579 0.833374 11.5994 0.833374 10.8333C0.833374 9.87251 1.19421 8.92168 1.66671 8.33334C1.66671 8.88588 1.8862 9.41578 2.2769 9.80648C2.6676 10.1972 3.19751 10.4167 3.75004 10.4167Z" stroke="#60A5FA" stroke-width="1.66667" stroke-linecap="round" stroke-linejoin="round"/>
</svg>
