<svg width="15" height="12" viewBox="0 0 15 12" fill="none" xmlns="http://www.w3.org/2000/svg">
<path d="M14.166 10C14.6263 10 15 10.3728 15 10.833C15 11.2932 14.6263 11.666 14.166 11.666H0.833008C0.372918 11.6658 0 11.2931 0 10.833C0 10.3729 0.372918 10.0002 0.833008 10H14.166ZM14.166 5C14.6263 5 15 5.37277 15 5.83301C15 6.29325 14.6263 6.66602 14.166 6.66602H0.833008C0.372918 6.66584 0 6.29314 0 5.83301C0 5.37288 0.372918 5.00017 0.833008 5H14.166ZM14.166 0C14.6263 0 15 0.372771 15 0.833008C15 1.29325 14.6263 1.66602 14.166 1.66602H0.833008C0.372918 1.66584 0 1.29314 0 0.833008C0 0.372877 0.372918 0.000172977 0.833008 0H14.166Z" fill="#1E293B"/>
</svg>
