<svg width="15" height="17" viewBox="0 0 15 17" fill="none" xmlns="http://www.w3.org/2000/svg">
<path d="M7.5 0C8.69347 0 9.83773 0.474446 10.6816 1.31836C11.5256 2.16227 12 3.30653 12 4.5V6.75H12.75C13.9926 6.75 15 7.75736 15 9V14.25C15 15.4926 13.9926 16.5 12.75 16.5H2.25C1.00736 16.5 0 15.4926 0 14.25V9C0 7.75736 1.00736 6.75 2.25 6.75H3V4.5C3 3.30653 3.47445 2.16227 4.31836 1.31836C5.16227 0.474446 6.30653 0 7.5 0ZM2.25 8.25C1.83579 8.25 1.5 8.58579 1.5 9V14.25C1.5 14.6642 1.83579 15 2.25 15H12.75C13.1642 15 13.5 14.6642 13.5 14.25V9C13.5 8.58579 13.1642 8.25 12.75 8.25H2.25ZM7.5 1.5C6.70435 1.5 5.94152 1.8163 5.37891 2.37891C4.8163 2.94152 4.5 3.70435 4.5 4.5V6.75H10.5V4.5C10.5 3.70435 10.1837 2.94152 9.62109 2.37891C9.05848 1.8163 8.29565 1.5 7.5 1.5Z" fill="#64748B"/>
</svg>
