 <svg width="17" height="17" viewBox="0 0 17 17" fill="none" xmlns="http://www.w3.org/2000/svg">
<path d="M8.33333 0.833332C7.33877 1.82789 6.78003 3.17681 6.78003 4.58333C6.78003 5.98985 7.33877 7.33877 8.33333 8.33333C9.32789 9.32789 10.6768 9.88663 12.0833 9.88663C13.4899 9.88663 14.8388 9.32789 15.8333 8.33333C15.8333 9.81669 15.3935 11.2667 14.5694 12.5001C13.7452 13.7335 12.5739 14.6948 11.2035 15.2624C9.83301 15.8301 8.32501 15.9786 6.87015 15.6892C5.4153 15.3998 4.07892 14.6855 3.03003 13.6366C1.98114 12.5877 1.26683 11.2514 0.977442 9.79651C0.688053 8.34165 0.836578 6.83365 1.40424 5.46321C1.97189 4.09276 2.93319 2.92142 4.16655 2.09731C5.39992 1.2732 6.84997 0.833332 8.33333 0.833332Z" stroke="#1E293B" stroke-width="1.66667" stroke-linecap="round" stroke-linejoin="round"/>
</svg>
