<svg width="36" height="36" viewBox="0 0 36 36" fill="none" xmlns="http://www.w3.org/2000/svg">
<path d="M16.5567 25.5C16.703 25.7533 16.9134 25.9637 17.1667 26.11C17.4201 26.2563 17.7075 26.3333 18 26.3333C18.2926 26.3333 18.5799 26.2563 18.8333 26.11C19.0867 25.9637 19.2971 25.7533 19.4433 25.5" stroke="#1E293B" stroke-width="1.66667" stroke-linecap="round" stroke-linejoin="round"/>
<path d="M10.7183 20.7716C10.6095 20.8909 10.5376 21.0393 10.5115 21.1987C10.4855 21.3581 10.5063 21.5217 10.5714 21.6695C10.6366 21.8173 10.7433 21.9429 10.8785 22.0312C11.0138 22.1195 11.1718 22.1665 11.3333 22.1666H24.6667C24.8282 22.1667 24.9862 22.1198 25.1216 22.0317C25.2569 21.9436 25.3637 21.8181 25.4291 21.6704C25.4944 21.5227 25.5154 21.3592 25.4895 21.1998C25.4637 21.0404 25.392 20.8919 25.2833 20.7725C24.175 19.63 23 18.4158 23 14.6666C23 13.3405 22.4732 12.0688 21.5355 11.1311C20.5979 10.1934 19.3261 9.66663 18 9.66663C16.6739 9.66663 15.4021 10.1934 14.4645 11.1311C13.5268 12.0688 13 13.3405 13 14.6666C13 18.4158 11.8242 19.63 10.7183 20.7716Z" stroke="#1E293B" stroke-width="1.66667" stroke-linecap="round" stroke-linejoin="round"/>
<path d="M24 8C24 5.79086 25.7909 4 28 4C30.2091 4 32 5.79086 32 8C32 10.2091 30.2091 12 28 12C25.7909 12 24 10.2091 24 8Z" fill="#EF4444"/>
</svg>
