<svg width="17" height="19" viewBox="0 0 17 19" fill="none" xmlns="http://www.w3.org/2000/svg">
<path d="M8.53126 0C9.19412 6.85609e-05 9.83008 0.262788 10.2988 0.731445C10.7676 1.20027 11.0313 1.83703 11.0313 2.5V2.64844L11.0381 2.75781C11.0525 2.86562 11.0878 2.97066 11.1426 3.06543C11.1973 3.15995 11.2704 3.24246 11.3565 3.30859L11.4473 3.37012L11.4502 3.37109L11.8086 3.5791H11.8076C11.9339 3.65155 12.0771 3.68945 12.2227 3.68945C12.3689 3.68945 12.513 3.65121 12.6397 3.57812L12.6641 3.56445L12.7647 3.51074L12.9844 3.39844C13.5078 3.16191 14.0994 3.11213 14.6592 3.26172C15.2189 3.4114 15.7074 3.74968 16.043 4.21582L16.1768 4.42383L16.3604 4.74023L16.3613 4.74121C16.6921 5.31483 16.7814 5.99702 16.6104 6.63672C16.4403 7.27218 16.0263 7.81404 15.459 8.14648L15.46 8.14746L15.335 8.22266L15.3223 8.22949C15.1953 8.30291 15.0897 8.40894 15.0166 8.53613C14.9436 8.66337 14.9057 8.80836 14.9063 8.95508V9.37793C14.9057 9.52466 14.9435 9.66966 15.0166 9.79688C15.0897 9.92384 15.1955 10.0292 15.3223 10.1025H15.3213L15.4229 10.1562L15.4483 10.1699C16.0212 10.5018 16.4392 11.0479 16.6104 11.6875C16.7806 12.3246 16.6918 13.0031 16.3643 13.5752L16.1817 13.9004L16.1768 13.9092C15.8448 14.482 15.2988 14.9003 14.6592 15.0713C14.0284 15.2398 13.3575 15.1536 12.7891 14.834V14.835L12.6641 14.7686C12.656 14.7642 12.6476 14.7595 12.6397 14.7549C12.513 14.6817 12.3689 14.6426 12.2227 14.6426C12.0772 14.6426 11.9338 14.6805 11.8076 14.7529L11.4502 14.9619L11.4473 14.9629C11.3209 15.0359 11.2156 15.1412 11.1426 15.2676C11.0696 15.3939 11.0315 15.5377 11.0313 15.6836V15.833C11.0312 16.4959 10.7675 17.1318 10.2988 17.6006C9.83008 18.0693 9.19413 18.3329 8.53126 18.333H8.16408C7.50121 18.3329 6.86526 18.0693 6.3965 17.6006C5.92782 17.1318 5.66416 16.4959 5.66408 15.833V15.6836C5.66388 15.5377 5.62573 15.394 5.55275 15.2676C5.47969 15.1412 5.37445 15.0359 5.24806 14.9629L5.24513 14.9619L4.88673 14.7539V14.7529C4.76071 14.6808 4.6179 14.6426 4.47267 14.6426C4.3264 14.6426 4.18236 14.6817 4.05568 14.7549C4.04774 14.7595 4.03935 14.7642 4.03126 14.7686L3.90626 14.835L3.90529 14.834C3.33697 15.1533 2.66662 15.2397 2.03615 15.0713C1.39654 14.9003 0.850536 14.482 0.518568 13.9092L0.334974 13.5918L0.333998 13.5908C0.00326911 13.0173 -0.0859321 12.3359 0.0849742 11.6963C0.254896 11.0608 0.668258 10.5181 1.23536 10.1855L1.36036 10.1104L1.37306 10.1025C1.49987 10.0292 1.60566 9.92384 1.67872 9.79688C1.75184 9.66966 1.7896 9.52466 1.78908 9.37793V8.95508L1.78126 8.84668C1.76657 8.7394 1.73148 8.63526 1.67677 8.54102C1.60378 8.41546 1.49878 8.31098 1.37306 8.23828C1.35767 8.22939 1.34196 8.21981 1.32716 8.20996L1.20216 8.12598V8.125C0.652731 7.79098 0.251557 7.25916 0.0849742 6.63672C-0.0860806 5.99702 0.00319821 5.31483 0.333998 4.74121L0.334974 4.74023L0.518568 4.42383L0.652357 4.21582C0.987918 3.74969 1.47644 3.41141 2.03615 3.26172C2.67576 3.09078 3.35716 3.17999 3.93068 3.51074H3.9297L4.03126 3.56445L4.05568 3.57812C4.18232 3.65121 4.32645 3.68945 4.47267 3.68945C4.61795 3.68945 4.76068 3.65127 4.88673 3.5791L5.24513 3.37109L5.24806 3.37012C5.37442 3.29714 5.47964 3.19171 5.55275 3.06543C5.62572 2.93918 5.66376 2.79523 5.66408 2.64941V2.5C5.66408 1.83704 5.92777 1.20027 6.3965 0.731445C6.86525 0.262791 7.50123 7.3075e-05 8.16408 0H8.53126ZM8.16408 1.66602C7.94325 1.66609 7.7314 1.75406 7.57521 1.91016C7.41904 2.06642 7.33107 2.27907 7.33107 2.5V2.65039C7.33056 3.08868 7.21447 3.51995 6.99513 3.89941C6.77575 4.27869 6.46053 4.5944 6.08107 4.81348L6.08009 4.8125L5.72462 5.02051L5.72267 5.02148C5.34267 5.24083 4.91143 5.35645 4.47267 5.35645C4.04307 5.35644 3.62121 5.24469 3.24708 5.03418L3.12208 4.96875C3.11398 4.96443 3.10563 4.95967 3.09767 4.95508C2.90647 4.84482 2.67906 4.81505 2.46583 4.87207C2.25298 4.92916 2.07151 5.06815 1.96095 5.25879L1.77736 5.57324L1.77833 5.57422C1.66816 5.76536 1.63738 5.99291 1.69435 6.20605C1.74427 6.39246 1.85747 6.5552 2.01271 6.66699L2.08204 6.71191L2.12697 6.73926L2.25197 6.82324C2.60897 7.03982 2.90702 7.34165 3.1172 7.70312C3.33635 8.08015 3.45338 8.50825 3.45607 8.94434V9.37109L3.45119 9.53613C3.42737 9.91917 3.31596 10.2929 3.12404 10.627C2.90678 11.0049 2.59301 11.3182 2.21681 11.5381L2.21779 11.5391L2.09279 11.6143L2.08204 11.6211C1.89116 11.7318 1.75135 11.9138 1.69435 12.127C1.63771 12.3395 1.66778 12.5661 1.77736 12.7568L1.95997 13.0732C2.07056 13.264 2.25285 13.4039 2.46583 13.4609C2.67893 13.5179 2.90655 13.488 3.09767 13.3779L3.12208 13.3643L3.24708 13.2979C3.62117 13.0874 4.04313 12.9766 4.47267 12.9766C4.85681 12.9766 5.23491 13.0651 5.57814 13.2344L5.72267 13.3115L5.72462 13.3125L6.08107 13.5195L6.22072 13.6064C6.53816 13.8187 6.80326 14.1017 6.99513 14.4336C7.21444 14.8131 7.33062 15.2443 7.33107 15.6826V15.833C7.33116 16.0538 7.41909 16.2657 7.57521 16.4219C7.73141 16.578 7.94324 16.6659 8.16408 16.666H8.53126C8.7521 16.6659 8.96393 16.578 9.12013 16.4219C9.27625 16.2657 9.36418 16.0538 9.36427 15.833V15.6826L9.37013 15.5186C9.39553 15.1372 9.50827 14.7657 9.70021 14.4336C9.91957 14.0541 10.2347 13.7387 10.6143 13.5195L10.9707 13.3125L10.9727 13.3115L11.1172 13.2344C11.4604 13.0651 11.8385 12.9766 12.2227 12.9766C12.6519 12.9766 13.0734 13.0877 13.4473 13.2979H13.4483L13.5733 13.3643L13.5977 13.3779C13.7888 13.488 14.0164 13.5179 14.2295 13.4609C14.4425 13.4039 14.6248 13.264 14.7354 13.0732L14.9131 12.7568L14.917 12.75H14.918C15.0282 12.5589 15.0579 12.3313 15.001 12.1182C14.9448 11.9082 14.8086 11.7283 14.6221 11.6172L14.5137 11.5596C14.5056 11.5552 14.4972 11.5505 14.4893 11.5459C14.108 11.3257 13.7908 11.0087 13.5713 10.627C13.3519 10.2452 13.2376 9.81141 13.2393 9.37109V8.95801C13.2381 8.51891 13.3526 8.08686 13.5713 7.70605C13.7885 7.32807 14.1013 7.01293 14.4776 6.79297L14.6026 6.71875L14.6133 6.71191L14.6826 6.66699C14.8379 6.5552 14.9511 6.39246 15.001 6.20605C15.058 5.99293 15.0281 5.76535 14.918 5.57422V5.5752L14.7344 5.25879V5.25781C14.6238 5.06754 14.4421 4.92908 14.2295 4.87207C14.0163 4.81505 13.7889 4.84482 13.5977 4.95508C13.5897 4.95967 13.5814 4.96443 13.5733 4.96875L13.4483 5.03516L13.4473 5.03418C13.0733 5.24441 12.652 5.35645 12.2227 5.35645C11.7839 5.35644 11.3527 5.24083 10.9727 5.02148L10.9707 5.02051L10.6143 4.8125C10.2349 4.59342 9.91954 4.2786 9.70021 3.89941C9.48087 3.51995 9.36478 3.08868 9.36427 2.65039V2.5C9.36427 2.27906 9.27631 2.06642 9.12013 1.91016C8.96393 1.75406 8.75209 1.66608 8.53126 1.66602H8.16408ZM8.34767 5.83301C10.1886 5.83301 11.6807 7.32507 11.6807 9.16602C11.6807 11.007 10.1886 12.499 8.34767 12.499C6.50673 12.499 5.01466 11.007 5.01466 9.16602C5.01466 7.32507 6.50673 5.83302 8.34767 5.83301ZM8.34767 7.49902C7.4272 7.49903 6.68068 8.24555 6.68068 9.16602C6.68068 10.0865 7.4272 10.833 8.34767 10.833C9.26814 10.833 10.0147 10.0865 10.0147 9.16602C10.0147 8.24554 9.26814 7.49902 8.34767 7.49902Z" fill="#1E293B"/>
</svg>
