<svg width="15" height="15" viewBox="0 0 15 15" fill="none" xmlns="http://www.w3.org/2000/svg">
<path d="M7.33496 0C11.3846 0.000439622 14.6678 3.28431 14.668 7.33398C14.6678 11.3837 11.3846 14.6666 7.33496 14.667C3.28498 14.667 0.000175739 11.3839 0 7.33398C0.000173193 3.28404 3.28498 0 7.33496 0ZM7.33496 1.33398C4.02136 1.33398 1.33513 4.02042 1.33496 7.33398C1.33514 10.6475 4.02136 13.334 7.33496 13.334C10.6482 13.3335 13.3348 10.6473 13.335 7.33398C13.3348 4.02069 10.6482 1.33442 7.33496 1.33398ZM7.33398 2.66699C9.91131 2.66699 12.001 4.75666 12.001 7.33398C12.001 9.91131 9.91131 12.001 7.33398 12.001C4.75666 12.001 2.66699 9.91131 2.66699 7.33398C2.66699 4.75666 4.75666 2.66699 7.33398 2.66699ZM7.33398 4.00098C5.49304 4.00098 4.00098 5.49304 4.00098 7.33398C4.00098 9.17493 5.49304 10.667 7.33398 10.667C9.17493 10.667 10.667 9.17493 10.667 7.33398C10.667 5.49304 9.17493 4.00098 7.33398 4.00098ZM7.33398 5.33398C8.43822 5.33425 9.33381 6.22973 9.33398 7.33398C9.33381 8.43824 8.43822 9.33372 7.33398 9.33398C6.22967 9.33381 5.33416 8.4383 5.33398 7.33398C5.33416 6.22967 6.22967 5.33416 7.33398 5.33398ZM7.33398 6.66797C6.96605 6.66814 6.66814 6.96605 6.66797 7.33398C6.66814 7.70192 6.96605 8.0008 7.33398 8.00098C7.70184 8.00071 8.0008 7.70186 8.00098 7.33398C8.0008 6.96611 7.70184 6.66823 7.33398 6.66797Z" fill="#64748B"/>
</svg>
