<svg width="16" height="16" viewBox="0 0 16 16" fill="none" xmlns="http://www.w3.org/2000/svg">
<path d="M8 5.33331C9.10457 5.33331 10 4.43788 10 3.33331C10 2.22874 9.10457 1.33331 8 1.33331C6.89543 1.33331 6 2.22874 6 3.33331C6 4.43788 6.89543 5.33331 8 5.33331Z" stroke="#000000" stroke-width="1.33333" stroke-linecap="round" stroke-linejoin="round"/>
<path d="M4.33315 5.33331C4.04465 5.33631 3.76491 5.4328 3.53592 5.6083C3.30692 5.7838 3.14103 6.02885 3.06315 6.30665L1.39982 12.3333C1.34942 12.5284 1.34388 12.7323 1.38361 12.9298C1.42334 13.1273 1.50731 13.3133 1.62921 13.4736C1.75111 13.634 1.90777 13.7647 2.08742 13.8559C2.26708 13.947 2.46506 13.9963 2.66648 14H13.3332C13.5389 13.9999 13.7419 13.9522 13.9262 13.8606C14.1104 13.769 14.271 13.636 14.3953 13.472C14.5196 13.308 14.6042 13.1174 14.6426 12.9153C14.681 12.7131 14.672 12.5048 14.6165 12.3066L12.9332 6.33331C12.8597 6.04892 12.6945 5.79673 12.463 5.6159C12.2315 5.43508 11.9469 5.33574 11.6532 5.33331H4.33315Z" stroke="#000000" stroke-width="1.33333" stroke-linecap="round" stroke-linejoin="round"/>
</svg>
